<?xml version="1.0" encoding="UTF-8"?>
<svg width="98px" height="21px" viewBox="0 0 98 21" version="1.1" xmlns="http://www.w3.org/2000/svg" xmlns:xlink="http://www.w3.org/1999/xlink">
    <!-- Generator: Sketch 51.3 (57544) - http://www.bohemiancoding.com/sketch -->
    <title>Group 12</title>
    <desc>Created with Sketch.</desc>
    <defs></defs>
    <g id="[BRANDED]-Unbounce-Landing-Page-Template" stroke="none" stroke-width="1" fill="none" fill-rule="evenodd">
        <g id="Landing_Page_Template-V1" transform="translate(-25.000000, -817.000000)">
            <g id="Group-12" transform="translate(25.000000, 816.000000)">
                <g id="Group-3" transform="translate(0.434211, 0.714777)" fill="#FFFFFF">
                    <path d="M70.120143,0.824027877 L70.120143,20.6018718 L72.5986015,20.6018718 L72.5986015,19.3550473 L72.5986015,2.77771024 C72.5986015,0.472624301 72.5986015,0.472624301 70.2558435,0.727619749 C70.2270831,0.730860358 70.2015633,0.764886756 70.120143,0.824027877 Z M49.0762335,0.802963916 L49.0762335,20.5893144 L61.0352972,20.5893144 L61.0352972,18.3241285 L51.5346408,18.3241285 L51.5346408,17.0884436 L51.5346408,2.81943308 C51.5346408,0.50867608 51.5346408,0.508473542 49.2283396,0.722758835 C49.1981614,0.725594368 49.1704137,0.752329395 49.0762335,0.802963916 Z M89.2042939,12.538223 C89.4698214,12.9297292 89.6638529,13.1942439 89.8362128,13.4725312 C91.1666854,15.6232831 92.4846008,17.7821366 93.8306689,19.9229641 C94.0117379,20.2109733 94.3050131,20.5860738 94.5853258,20.6227332 C95.3339065,20.7205591 96.1039563,20.656152 97.0068711,20.656152 C96.7662558,20.2285941 96.6175929,19.9381545 96.4454355,19.6622976 C94.7491791,16.9446416 93.078645,14.2101749 91.3299311,11.5263428 C90.866524,10.815029 90.9139179,10.3202285 91.3530205,9.6443589 C93.0249724,7.07111254 94.6420364,4.46242202 96.2769238,1.86527617 C96.4853355,1.53392386 96.6755188,1.19143196 96.892032,0.824635491 C94.644872,0.398495362 94.4640054,0.474447144 93.3923764,2.23207264 C92.8131175,3.18217879 92.2348713,4.13309509 91.6545997,5.08239109 C90.9238423,6.27837848 90.1914646,7.47315064 89.401566,8.7631157 C89.0991767,8.29484765 88.8759797,7.96025473 88.6639223,7.61877552 C87.3660583,5.52696219 86.0817643,3.42664226 84.7626338,1.34839898 C84.5870332,1.07193449 84.2593266,0.752937009 83.9686845,0.71587254 C83.25332,0.624730402 82.5185118,0.685896904 81.5933178,0.685896904 C81.92386,1.22788882 82.1423986,1.59428021 82.3688361,1.95581069 C84.0152682,4.5851601 85.6454973,7.22544656 87.3255507,9.83332693 C87.6923471,10.402864 87.6874862,10.7984209 87.3217025,11.367958 C85.5711658,14.0910825 83.8712637,16.8466132 82.1565762,19.592827 C81.9676082,19.8954189 81.8009194,20.212391 81.6087107,20.5492119 C84.0573961,20.9241099 84.0590165,20.9228946 85.2371805,18.9941245 C85.7117272,18.2171884 86.1876917,17.4410624 86.6644664,16.6653416 C87.4877837,15.3261598 88.3121137,13.987383 89.2042939,12.538223 Z M39.2229583,0.773190818 C39.027509,0.736733963 38.8988973,0.692175584 38.7702856,0.691973046 C34.7539554,0.686504518 30.7376252,0.704125331 26.7214976,0.669288781 C25.8459254,0.661794872 25.95003,1.18495074 25.9502325,1.7287655 C25.9518528,7.70262629 25.9504351,13.6764871 25.9536757,19.6501453 C25.9538782,19.9697504 25.9879046,20.2893555 26.0041077,20.5729088 L39.2207303,20.5729088 L39.2207303,18.3749656 L28.574721,18.3749656 L28.574721,11.4378336 L37.9283348,11.4378336 L37.9283348,9.08110049 L28.5635814,9.08110049 L28.5635814,2.97700771 L39.2229583,2.97700771 L39.2229583,0.773190818 Z M2.54999499,0.683466447 C2.02987719,0.683466447 1.65497919,0.729240054 1.29547409,0.674757309 C0.27670753,0.519613137 -0.00947878233,0.896536511 0.000243045701,1.93879749 C0.0545232522,7.77493238 0.0263704585,13.61208 0.0263704585,19.4488225 L0.0263704585,20.5931626 L2.58969245,20.5931626 L2.58969245,11.5500397 L12.1498951,11.5500397 L12.1498951,20.5753393 L14.6727095,20.5753393 L14.6727095,15.9461288 C14.6727095,11.1891169 14.6769628,6.43169981 14.6648105,1.67468783 C14.6637978,1.2868274 14.8768679,0.714049697 14.1531993,0.692783198 C13.4965708,0.67354208 12.8391322,0.688732437 12.1142484,0.688732437 L12.1142484,8.97699591 L2.54999499,8.97699591 L2.54999499,0.683466447 Z" id="Fill-1"></path>
                </g>
                <path d="M2.98416561,1.39818244 L2.98416561,9.6917119 L12.5486216,9.6917119 L12.5486216,1.40344843 C13.2733028,1.40344843 13.9307414,1.38825807 14.5873699,1.40749919 C15.3110385,1.42876569 15.0979684,2.00154339 15.0989811,2.38960636 C15.1111334,7.14661834 15.1068801,11.9038329 15.1068801,16.6608448 L15.1068801,21.2900553 L12.5840657,21.2900553 L12.5840657,12.2647557 L3.02386307,12.2647557 L3.02386307,21.3080812 L0.460541082,21.3080812 L0.460541082,20.1635385 C0.460541082,14.326796 0.488693875,8.48985091 0.434413669,2.65351348 C0.424691841,1.61145504 0.710878154,1.23432913 1.72964472,1.3894733 C2.08935235,1.44415858 2.46425035,1.39818244 2.98416561,1.39818244" id="Fill-6" fill="#000000"></path>
                <path d="M39.6572099,1.48798783 L39.6572099,3.69180472 L28.9978331,3.69180472 L28.9978331,9.7958975 L38.3625865,9.7958975 L38.3625865,12.1526306 L29.0087701,12.1526306 L29.0087701,19.0897626 L39.654982,19.0897626 L39.654982,21.2877058 L26.4381568,21.2877058 C26.4219537,21.0041525 26.3879273,20.6845474 26.3877248,20.3649423 C26.3846867,14.3912841 26.3861045,8.4174233 26.3844842,2.44356251 C26.3842816,1.89974775 26.2801771,1.37659188 27.1557492,1.38408579 C31.1716743,1.41892234 35.1882071,1.40130153 39.2045373,1.40677005 C39.333149,1.40697259 39.4617606,1.45153097 39.6572099,1.48798783" id="Fill-7" fill="#000000"></path>
                <path d="M89.6384241,13.2529998 C88.7464463,14.7021598 87.9219138,16.0409365 87.0985965,17.3801183 C86.6218218,18.1558392 86.1460599,18.9319651 85.6713106,19.7089012 C84.4933491,21.6376714 84.4915263,21.6388866 82.0428408,21.2639886 C82.2350495,20.9271678 82.4019409,20.6101957 82.5907063,20.3076038 C84.3053938,17.5613899 86.0054984,14.8058593 87.7558326,12.0827347 C88.1218189,11.5131977 88.1264773,11.1176408 87.7598833,10.5483062 C86.0798299,7.94042585 84.4496009,5.29993685 82.8029663,2.67058744 C82.5767312,2.30905696 82.3581926,1.94266557 82.0276505,1.40067366 C82.9526419,1.40067366 83.6874501,1.33950716 84.4028146,1.43064929 C84.6934567,1.46771376 85.0211634,1.78671125 85.1967639,2.06317573 C86.5158944,4.14141901 87.8003909,6.24173894 89.0980524,8.33355227 C89.3101098,8.67503148 89.5333068,9.0096244 89.8358987,9.47789245 C90.6255947,8.18792739 91.3579724,6.99315523 92.0889323,5.79716785 C92.6692039,4.84787185 93.2472476,3.89695554 93.8267091,2.94684939 C94.8983381,1.1892239 95.0790021,1.11327212 97.3261621,1.53941225 C97.1098514,1.90641125 96.9194656,2.24870062 96.711054,2.58005292 C95.0763691,5.17719877 93.4591025,7.7858893 91.7871506,10.3591357 C91.348048,11.0350052 91.3006541,11.5298058 91.7640612,12.2411195 C93.5127751,14.9249517 95.1833092,17.6594184 96.8795656,20.3770744 C97.0519255,20.6529312 97.200386,20.9433708 97.4410012,21.3709287 C96.5380864,21.3709287 95.7682392,21.4353359 95.0194559,21.33751 C94.7393457,21.3008506 94.445868,20.92575 94.2650015,20.6377409 C92.9187309,18.4969133 91.6008156,16.3380599 90.2703429,14.187308 C90.0981855,13.9090207 89.904154,13.6445059 89.6384241,13.2529998" id="Fill-8" fill="#000000"></path>
                <path d="M49.5103839,1.51784194 C49.6047666,1.46700488 49.6325143,1.44026985 49.66249,1.43763686 C51.9689937,1.22335156 51.9689937,1.2235541 51.9689937,3.53410857 L51.9689937,17.8031191 L51.9689937,19.0390065 L61.4694476,19.0390065 L61.4694476,21.3039899 L49.5103839,21.3039899 L49.5103839,1.51784194 Z" id="Fill-9" fill="#000000"></path>
                <path d="M70.5543541,1.53880463 C70.6357744,1.47966351 70.6612942,1.44563711 70.6900546,1.4423965 C73.0328126,1.18740106 73.0328126,1.18740106 73.0328126,3.49248699 L73.0328126,20.0698241 L73.0328126,21.3166485 L70.5543541,21.3166485 L70.5543541,1.53880463 Z" id="Fill-10" fill="#000000"></path>
            </g>
        </g>
    </g>
</svg>