<?xml version="1.0" encoding="UTF-8"?>
<svg width="100px" height="21px" viewBox="0 0 100 21" version="1.1" xmlns="http://www.w3.org/2000/svg" xmlns:xlink="http://www.w3.org/1999/xlink">
    <!-- Generator: Sketch 51.3 (57544) - http://www.bohemiancoding.com/sketch -->
    <title>Group</title>
    <desc>Created with Sketch.</desc>
    <defs></defs>
    <g id="[BRANDED]-Unbounce-Landing-Page-Template" stroke="none" stroke-width="1" fill="none" fill-rule="evenodd">
        <g id="Landing_Page_Template-V1" transform="translate(-170.000000, -819.000000)" fill="#303030" fill-rule="nonzero">
            <g id="Group" transform="translate(170.000000, 819.000000)">
                <path d="M18.0833054,17.3741562 L18.0833054,19.4390319 C18.0833054,19.8770358 17.7078735,20.2316104 17.2698695,20.2107531 L1.56429978,20.1898958 C1.12629584,20.1898958 0.771721222,19.8353211 0.792578553,19.3973172 C0.792578553,19.3973172 0.792578553,17.1447255 0.792578553,17.0404389 C0.792578553,16.8527229 0.876007874,16.6650069 1.02200919,16.5190056 L12.2432529,4.00460742 L0.938579865,4.00460742 C0.500575928,4.00460742 0.146001312,3.65003281 0.166858643,3.2328862 L0.187715973,1.10543851 C0.187715973,0.667434571 0.542290589,0.312859955 0.980294526,0.333717285 L16.6650069,0.354574616 C17.1030109,0.354574616 17.4575855,0.709149231 17.4367282,1.14715317 C17.4367282,1.14715317 17.4367282,3.06602756 17.4367282,3.37888751 C17.4367282,3.60831815 17.3741562,3.79603412 17.2281549,3.98375009 L6.02776847,16.5815776 L17.2907268,16.5815776 C17.7287308,16.5815776 18.0833054,16.9361522 18.0833054,17.3741562" id="Shape"></path>
                <path d="M36.87576,20.4610411 C31.2442808,20.4193264 26.6973828,15.8098564 26.7390975,10.1575199 C26.7808121,4.52604068 31.3902822,-0.0208573303 37.0426187,0.0208573303 C42.6740979,0.062571991 47.2209959,4.67204199 47.1792812,10.3243785 C47.1375666,15.9558577 42.5280966,20.5027557 36.87576,20.4610411 M37.000904,3.85860611 C33.4760152,3.83774878 30.5977036,6.67434571 30.5768463,10.1783772 C30.5559889,13.703266 33.3925859,16.5815776 36.8966174,16.6024349 C40.4215062,16.6232923 43.2998178,13.7866954 43.3206751,10.2826639 C43.3623898,6.77863236 40.5257928,3.90032077 37.000904,3.85860611" id="Shape"></path>
                <path d="M70.3309179,17.0404389 L70.3309179,19.6893198 C70.3309179,19.9813225 70.0180579,20.2316104 69.6634833,20.2107531 L58.6925276,20.2107531 C58.4005249,20.2107531 58.1710943,19.9813225 58.1710943,19.6893198 L58.1710943,0.876007874 C58.1710943,0.584005249 58.5465262,0.354574616 58.8385289,0.354574616 L61.5082672,0.354574616 C61.8002698,0.354574616 62.0297004,0.584005249 62.0297004,0.876007874 L62.0297004,16.5190056 L69.6843406,16.5190056 C70.0389153,16.5190056 70.3309179,16.7484363 70.3309179,17.0404389" id="Shape"></path>
                <path d="M98.6551725,20.2107531 L95.7977182,20.2107531 C95.5682876,20.2107531 95.3597143,20.0647518 95.276285,19.8770358 L93.5659839,15.8724284 L84.2636145,15.8724284 L82.4698841,19.8978931 C82.3864548,20.1064664 82.1778815,20.2316104 81.9484509,20.2316104 L79.049282,20.2316104 C78.6321354,20.2316104 78.3609901,19.7936065 78.5278487,19.4181745 L87.0584968,0.730006562 C87.1627835,0.521433258 87.3296421,0.375431946 87.5382154,0.375431946 C88.1013633,0.375431946 90.2079537,0.375431946 90.5208136,0.375431946 C90.7502443,0.375431946 90.9171029,0.542290589 91.0005322,0.750863892 L99.1766057,19.4181745 C99.3434644,19.7936065 99.0514618,20.2107531 98.6551725,20.2107531 Z M91.9391121,12.1806809 L88.9773712,5.42290589 L85.9113436,12.1806809 L91.9391121,12.1806809 Z" id="Shape"></path>
            </g>
        </g>
    </g>
</svg>