<?xml version="1.0" encoding="UTF-8"?>
<svg width="108px" height="37px" viewBox="0 0 108 37" version="1.1" xmlns="http://www.w3.org/2000/svg" xmlns:xlink="http://www.w3.org/1999/xlink">
    <!-- Generator: Sketch 51.3 (57544) - http://www.bohemiancoding.com/sketch -->
    <title>Group 37</title>
    <desc>Created with Sketch.</desc>
    <defs></defs>
    <g id="[BRANDED]-Unbounce-Landing-Page-Template" stroke="none" stroke-width="1" fill="none" fill-rule="evenodd">
        <g id="Landing_Page_Template-V1" transform="translate(-552.000000, -811.000000)">
            <g id="Group-37" transform="translate(552.000000, 811.000000)">
                <g id="Group-22" transform="translate(17.888889, 18.388941)">
                    <polygon id="Fill-1" fill="#F2F2F2" points="12.4421481 18.2036519 18.5066667 18.2036519 18.5066667 12.1377259 12.4421481 12.1377259"></polygon>
                    <polygon id="Fill-2" fill="#ECECEC" points="0.308888889 6.3758 6.37481481 6.3758 6.37481481 0.308466667 0.308888889 0.308466667"></polygon>
                </g>
                <g id="Group-21">
                    <path d="M42.6969407,23.1166667 C42.6969407,24.5831852 41.2993852,26.296 39.7273111,26.296 C38.5394593,26.296 38.0159037,25.6317037 38.0159037,24.7928889 C38.0159037,23.2911852 40.2156815,22.7324444 42.1382,22.7324444 L42.6969407,22.7324444 L42.6969407,23.1166667 Z M48.2041259,16.5708148 C47.1724963,13.7194074 44.4730889,12.0755556 40.5661259,12.0755556 C36.1285704,12.0755556 33.0196074,14.4160741 33.0196074,14.4160741 L35.115237,18.6805185 C35.115237,18.6805185 37.7006444,16.9677037 39.9722,16.9677037 C41.4739037,16.9677037 42.6265704,17.4574815 42.6265704,18.9591852 L42.6265704,19.2744444 L42.3816815,19.2744444 C39.5879778,19.2744444 31.9359037,19.866963 31.9359037,25.1081481 C31.9359037,26.7027407 32.4918296,28.0285185 33.4024222,29.0094815 C34.037163,29.6934815 34.8422,30.2071852 35.7570148,30.5266667 C35.9653111,30.5984444 36.1778296,30.658963 36.3945704,30.711037 C36.8801259,30.8278519 37.3896074,30.8911852 37.913163,30.901037 C37.9596074,30.9024444 38.003237,30.9066667 38.0496815,30.9066667 C41.8229407,30.9066667 43.1515333,28.2874815 43.1515333,28.2874815 L43.2219037,28.2874815 C43.2219037,28.2874815 43.1515333,28.811037 43.1515333,29.404963 L43.1515333,30.4872593 L48.2041259,30.4872593 L48.6713852,30.4872593 L48.6713852,19.4123704 C48.6713852,18.3666667 48.5109407,17.4152593 48.2041259,16.5708148 Z" id="Fill-3" fill="#303030"></path>
                    <path d="M61.5856148,25.3472667 C61.4955407,25.3500815 61.3942074,25.3528963 61.2844296,25.3528963 C60.131763,25.3528963 58.0699111,25.0742296 58.0699111,23.0461556 L58.0699111,17.5263037 L61.5856148,17.5263037 L61.8445778,17.5263037 L61.8445778,12.8100815 L61.5856148,12.8100815 L58.0699111,12.8100815 L58.0699111,7.63926667 L52.2010222,7.63926667 L52.2010222,12.8100815 L50.1870222,12.8100815 L49.719763,12.8100815 L49.719763,17.5263037 L50.1870222,17.5263037 L52.0265037,17.5263037 L52.0265037,23.8511926 C52.0265037,29.8931926 57.5815407,30.6630444 60.4456148,30.6630444 C60.9114667,30.6630444 61.2999111,30.6391185 61.5856148,30.6137852 C61.9022815,30.5870444 62.0880593,30.5574889 62.0880593,30.5574889 L62.0880593,25.3177111 C62.0880593,25.3177111 61.8980593,25.3374148 61.5856148,25.3472667" id="Fill-5" fill="#303030"></path>
                    <path d="M72.3254,16.6183852 C73.7581407,16.6183852 74.6996963,17.8400148 74.6996963,19.2037926 L69.4247333,19.2037926 C69.7399926,17.8766074 70.5788074,16.6183852 72.3254,16.6183852 M73.4780667,25.8763111 C71.5555481,25.8763111 69.7399926,24.8629778 69.2854,22.6617926 L80.6389556,22.6617926 C80.6389556,22.6617926 80.7811037,21.3697926 80.7811037,20.7758667 C80.7811037,15.7795704 77.7762889,12.0752741 72.4661407,12.0752741 C67.9399185,12.0752741 64.7774741,14.5860889 63.6051037,18.1946815 C63.274363,19.2108296 63.1012519,20.314237 63.1012519,21.4739407 C63.1012519,22.5323111 63.2715481,23.5836444 63.6051037,24.5800889 C64.7774741,28.0873481 67.9821407,30.9063852 72.9896963,30.9063852 C77.7762889,30.9063852 80.6755481,28.2872 80.6755481,28.2872 L78.4391778,24.0593481 C78.4391778,24.0593481 76.0634741,25.8763111 73.4780667,25.8763111" id="Fill-7" fill="#303030"></path>
                    <path d="M94.5456889,12.1818148 C91.8561333,12.1818148 89.5845778,14.2070741 88.8161333,16.6531481 L88.745763,16.6531481 C88.745763,16.6531481 88.8161333,16.1295926 88.8161333,15.5356667 L88.8161333,12.4956667 L83.0162074,12.4956667 L83.0162074,30.487963 L89.0610222,30.487963 L89.0610222,23.6747037 C89.0610222,22.697963 89.1651704,21.8929259 89.3748741,21.230037 C90.2474667,18.5404815 92.5893926,18.0844815 94.0221333,18.0844815 C94.7553926,18.0844815 95.2451704,18.1914444 95.2451704,18.1914444 L95.2451704,12.2507778 C95.2451704,12.2507778 94.8961333,12.1818148 94.5456889,12.1818148" id="Fill-9" fill="#303030"></path>
                    <polygon id="Fill-11" fill-opacity="0.3" fill="#303030" points="6.06592593 6.56555556 12.1332593 6.56555556 12.1332593 0.49962963 6.06592593 0.49962963"></polygon>
                    <polygon id="Fill-13" fill-opacity="0.5" fill="#303030" points="95.539037 6.56555556 101.604963 6.56555556 101.604963 0.49962963 95.539037 0.49962963"></polygon>
                    <polygon id="Fill-14" fill-opacity="0.2" fill="#303030" points="101.603556 6.56555556 107.670889 6.56555556 107.670889 0.49962963 101.603556 0.49962963"></polygon>
                    <polygon id="Fill-15" fill-opacity="0.5" fill="#303030" points="101.603556 12.6328889 107.670889 12.6328889 107.670889 6.56555556 101.603556 6.56555556"></polygon>
                    <polygon id="Fill-16" fill-opacity="0.2" fill="#303030" points="6.06592593 24.7647407 12.1332593 24.7647407 12.1332593 18.6974074 6.06592593 18.6974074"></polygon>
                    <polygon id="Fill-17" fill-opacity="0.2" fill="#303030" points="0 18.6974074 6.06592593 18.6974074 6.06592593 12.6314815 0 12.6314815"></polygon>
                    <polygon id="Fill-18" fill="#F2F2F2" points="12.1318519 36.5925926 18.1977778 36.5925926 18.1977778 30.5252593 12.1318519 30.5252593"></polygon>
                    <polygon id="Fill-19" fill-opacity="0.5" fill="#303030" points="24.2622963 18.6974074 30.3296296 18.6974074 30.3296296 12.6314815 24.2622963 12.6314815"></polygon>
                    <polygon id="Fill-20" fill="#303030" points="25.7806074 24.4608815 24.2634222 24.4608815 18.1974963 24.4608815 18.1974963 18.396363 18.1974963 18.3935481 18.1974963 16.8805852 18.1974963 12.3290296 18.1974963 6.2616963 13.6487556 6.2616963 12.1329778 6.2616963 12.1329778 7.77888148 12.1329778 12.3290296 12.1329778 16.8777704 12.1329778 18.3935481 12.1329778 24.4608815 12.1329778 25.9766593 12.1329778 29.0096222 12.1329778 30.5268074 18.1974963 30.5268074 19.7132741 30.5268074 24.2634222 30.5268074 28.8135704 30.5268074 30.3293481 30.5268074 30.3293481 29.0096222 30.3293481 24.4608815"></polygon>
                </g>
            </g>
        </g>
    </g>
</svg>