<?xml version="1.0" encoding="UTF-8"?>
<svg width="191px" height="29px" viewBox="0 0 191 29" version="1.1" xmlns="http://www.w3.org/2000/svg" xmlns:xlink="http://www.w3.org/1999/xlink">
    <!-- Generator: Sketch 51.3 (57544) - http://www.bohemiancoding.com/sketch -->
    <title>Group 64</title>
    <desc>Created with Sketch.</desc>
    <defs></defs>
    <g id="[BRANDED]-Unbounce-Landing-Page-Template" stroke="none" stroke-width="1" fill="none" fill-rule="evenodd">
        <g id="Landing_Page_Template-V1" transform="translate(-315.000000, -816.000000)">
            <g id="Group-64" transform="translate(315.000000, 816.000000)">
                <path d="M133.413581,0.24195072 C132.966605,1.55215872 132.530381,2.84869632 132.083405,4.14200832 C131.065037,7.08483072 130.048205,10.0294963 129.011405,12.9663283 C128.954573,13.1289907 128.817869,13.2641587 128.685773,13.4010163 L128.393933,13.4010163 C128.244941,13.2518707 128.088269,13.1044147 128.023757,12.9247027 C126.830285,9.61001472 125.659853,6.28764672 124.483123,2.96681472 C124.409549,2.76252672 124.320461,2.56284672 124.162253,2.17132032 C123.933235,2.82089472 123.764429,3.29244672 123.598541,3.76553472 C122.534093,6.80067072 121.478861,9.83887872 120.394445,12.8678707 C120.322253,13.0692403 120.143923,13.2319027 119.979725,13.4010163 L119.687885,13.4010163 C119.538893,13.2474163 119.380685,13.0982707 119.314637,12.9139507 C117.873869,8.87427072 116.456141,4.82706432 115.035341,0.77955072 C114.976973,0.61535232 114.949325,0.44163072 114.907853,0.27420672 C116.016845,-0.00058368 116.105933,0.03612672 116.442317,1.01164032 C117.466829,3.97903872 118.485197,6.94981632 119.509555,9.91875072 C119.588045,10.1446963 119.687885,10.3641907 119.866061,10.8019507 C120.475853,9.02633472 121.011917,7.47052032 121.543373,5.91301632 C122.120755,4.22172672 122.704435,2.53212672 123.259085,0.83346432 C123.417293,0.34793472 123.681485,0.15747072 124.196045,0.13612032 C124.738253,0.11292672 124.882637,0.40783872 125.030093,0.82563072 C126.089933,3.86230272 127.165133,6.89452032 128.237261,9.92812032 C128.310835,10.1370163 128.398541,10.3428403 128.541235,10.7067187 C128.702669,10.2812467 128.820941,10.0078387 128.913101,9.72675072 C129.854669,6.86364672 130.790093,4.00069632 131.731661,1.13912832 C132.094157,0.03612672 132.100301,0.03781632 133.413581,0.24195072" id="Fill-1" fill="#3F3F3F"></path>
                <path d="M83.48736,13.5172454 C82.708608,13.7717606 82.2518016,13.4806886 81.8009856,12.9079142 C79.3019136,9.73254144 76.7649024,6.58696704 74.2389504,3.43294464 C74.0710656,3.22312704 73.8859776,3.02713344 73.584,2.68214784 L73.584,13.5418214 L72.295296,13.5418214 L72.295296,0.26110464 C72.9202944,-0.00247296 73.3262592,0.20795904 73.732992,0.72559104 C76.3712256,4.08390144 79.0387968,7.41932544 81.6985344,10.7608934 C81.819264,10.9124966 81.9568896,11.0502758 82.2166272,11.3391974 L82.2166272,0.28015104 L83.48736,0.28015104 L83.48736,13.5172454 Z" id="Fill-3" fill="#3F3F3F"></path>
                <path d="M180.882877,11.1328358 L180.882877,0.28852224 L182.113367,0.28852224 L182.113367,13.5203942 C181.482071,13.7016422 181.002225,13.619159 180.541732,13.033943 C178.010865,9.81755904 175.440522,6.63235584 172.883236,3.43686144 C172.709821,3.22028544 172.531799,3.00770304 172.219069,2.62646784 L172.219069,13.5420518 L170.944497,13.5420518 C170.929444,13.2577382 170.90241,12.9838694 170.902257,12.7100006 C170.899645,8.82084864 170.894884,4.93200384 170.912087,1.04315904 C170.913316,0.75300864 170.998871,0.29743104 171.184727,0.20772864 C171.604516,0.00528384 171.981911,0.22462464 172.292951,0.61953024 C174.920893,3.95433984 177.567114,7.27471104 180.209034,10.5984614 C180.365399,10.7950694 180.531901,10.9832294 180.693642,11.175383 C180.756772,11.1612518 180.819748,11.1471206 180.882877,11.1328358" id="Fill-5" fill="#3F3F3F"></path>
                <path d="M56.6306765,8.03265024 L53.6161229,8.03265024 L53.6161229,7.07249664 L57.5728589,7.07249664 L57.5728589,13.5441254 L56.5709261,13.5441254 L56.5709261,11.7660518 C56.3184077,11.953751 56.1981389,12.032087 56.0903117,12.1251686 C53.4169037,14.4357734 50.1713357,14.261591 47.7693389,11.6771174 C44.6096333,8.27764224 45.6309197,2.50397184 49.7311181,0.58535424 C52.2718157,-0.60350976 55.5579341,0.25741824 56.9702861,2.48523264 C57.0629069,2.63099904 57.1278797,2.79427584 57.2332493,3.00501504 C56.9176013,3.21529344 56.6291405,3.40729344 56.4793805,3.50697984 C55.6803533,2.85095424 55.0366157,2.11689984 54.2291405,1.69987584 C52.1517005,0.62651904 49.7406413,1.29713664 48.3631565,3.18872064 C46.3007693,6.02095104 47.0122445,10.1560166 49.8725837,11.8989158 C52.0538573,13.227863 54.7695053,12.6444902 56.3776973,10.4188262 C56.7658445,9.88137984 56.5561805,8.91185664 56.6306765,8.03265024" id="Fill-7" fill="#3F3F3F"></path>
                <path d="M153.270728,6.1757952 L161.30155,6.1757952 L161.30155,0.2138112 L162.610222,0.2138112 L162.610222,13.5415296 L161.340564,13.5415296 L161.340564,7.3629696 L153.308513,7.3629696 L153.308513,13.5453696 L152.049454,13.5453696 C152.035016,13.2271104 152.009672,12.9265152 152.009364,12.62592 C152.006753,8.815104 152.007368,5.004288 152.007828,1.1933184 C152.007828,0.0566784 152.038702,0.0324096 153.270728,0.2525184 L153.270728,6.1757952 Z" id="Fill-9" fill="#3F3F3F"></path>
                <path d="M69.3892301,0.23115264 L69.3892301,1.28822784 L68.5771469,1.28822784 C66.5557709,1.28838144 64.5340877,1.30742784 62.5131725,1.27655424 C61.9327181,1.26749184 61.7550029,1.46302464 61.7708237,2.02581504 C61.8038477,3.20193024 61.8015437,4.38004224 61.7720525,5.55631104 C61.7585357,6.09606144 61.9551437,6.26148864 62.4852173,6.25457664 C64.4282573,6.22969344 66.3717581,6.24459264 68.3863757,6.24459264 L68.3863757,7.27862784 C66.4522445,7.27862784 64.5628109,7.30888704 62.6752205,7.26296064 C61.9718861,7.24591104 61.7345741,7.44804864 61.7657549,8.16182784 C61.8192077,9.38755584 61.7998541,10.6178918 61.7722061,11.845463 C61.7603789,12.3750758 61.9360973,12.5593958 62.4767693,12.5526374 C64.5233357,12.5269862 66.5705165,12.5423462 68.6175437,12.5424998 L69.5194829,12.5424998 L69.5194829,13.5322982 L60.6294221,13.5322982 L60.6294221,0.23115264 L69.3892301,0.23115264 Z" id="Fill-11" fill="#3F3F3F"></path>
                <path d="M35.7531494,8.36745216 C36.6686054,6.16175616 37.5518054,4.03147776 38.5363814,1.65820416 C39.4856294,3.99307776 40.3534694,6.12796416 41.2658534,8.36745216 L35.7531494,8.36745216 Z M44.3992934,12.9401242 C42.7081574,8.88662016 41.0108774,4.83465216 39.3228134,0.77961216 C39.1661414,0.40175616 39.0140774,0.13910016 38.5164134,0.13295616 C37.9941734,0.12681216 37.8789734,0.44783616 37.7299814,0.80587776 C36.0588134,4.81161216 34.3861094,8.81750016 32.7149414,12.8249242 C32.6212454,13.0490266 32.5367654,13.2780442 32.4492134,13.5023002 C33.3385574,13.7757082 33.8623334,13.6052122 34.1357414,12.6989722 C34.4229734,11.7497242 34.8438374,10.8358042 35.2693094,9.93724416 C35.3799014,9.70530816 35.7270374,9.44418816 35.9712614,9.43804416 C37.6577894,9.39503616 39.3489254,9.39503616 41.0354534,9.43650816 C41.2858214,9.44418816 41.6421734,9.68841216 41.7527654,9.91727616 C42.1828454,10.8127642 42.5345894,11.7481882 42.9155174,12.6682522 C43.3532774,13.7279386 43.3578854,13.7311642 44.5989734,13.5130522 C44.5313894,13.3178266 44.4760934,13.1244442 44.3992934,12.9401242 Z" id="Fill-13" fill="#3F3F3F"></path>
                <path d="M97.550976,2.9887488 C97.1614464,3.2226816 96.8634624,3.4016256 96.5184768,3.6089856 C95.7329664,2.2616064 94.6201344,1.4289408 93.082752,1.285632 C90.7030272,1.0639872 88.7739648,2.2745088 87.8942976,4.5030912 C86.7908352,7.2989184 87.8076672,10.5432576 90.2362368,11.9758848 C92.2814208,13.1821056 95.01504,12.596736 96.3873024,10.6579968 C96.5043456,10.4927232 96.6183168,10.3254528 96.7579392,10.1242368 C97.082496,10.2961152 97.392,10.46016 97.8825984,10.7198976 C97.3806336,11.3025024 97.0013952,11.8777344 96.4968192,12.304896 C94.0149504,14.4062976 90.4302336,14.190336 88.1795328,11.8454784 C84.872064,8.3999232 85.78752,2.5949184 89.94624,0.6414336 C92.2582272,-0.444672 95.0966016,0.0477696 96.725376,1.8396672 C97.0255104,2.1697536 97.2517632,2.567424 97.550976,2.9887488" id="Fill-15" fill="#3F3F3F"></path>
                <path d="M98.4100301,0.22964736 C99.2070605,0.06775296 99.7461965,0.10215936 100.191483,0.87737856 C101.436872,3.04574976 102.77995,5.15821056 104.146376,7.39370496 C104.329006,7.14763776 104.468628,6.98635776 104.578913,6.80710656 C105.771464,4.86898176 107.007483,2.95512576 108.124769,0.97445376 C108.568059,0.18863616 109.094446,0.03703296 109.944315,0.22381056 C109.832648,0.44514816 109.750318,0.64329216 109.638958,0.82361856 C108.162401,3.21747456 106.665569,5.59904256 105.217275,8.00994816 C104.969979,8.42174976 104.826824,8.95182336 104.807316,9.43412736 C104.752788,10.7830426 104.78827,12.1356442 104.78827,13.543849 L103.572833,13.543849 C103.572833,12.3890842 103.5266,11.2432282 103.586964,10.103209 C103.639496,9.11663616 103.393736,8.28658176 102.850913,7.45069056 C101.458683,5.30704896 100.151086,3.10811136 98.8112333,0.93037056 C98.6823629,0.72055296 98.5662413,0.50305536 98.4100301,0.22964736" id="Fill-17" fill="#3F3F3F"></path>
                <path d="M145.003484,13.5601459 L143.788047,13.5601459 L143.788047,12.6253363 C143.788047,9.14675712 143.772687,5.66787072 143.801103,2.18959872 C143.806633,1.51114752 143.650115,1.23666432 142.911913,1.27122432 C141.614607,1.33220352 140.312233,1.28827392 138.964239,1.28827392 L138.964239,0.19402752 C139.237801,0.18004992 139.511363,0.15378432 139.784771,0.15363072 C142.854313,0.15055872 145.923702,0.15055872 148.993091,0.15240192 C149.926211,0.15301632 149.960003,0.20078592 149.760323,1.28827392 C148.487593,1.28827392 147.191823,1.32298752 145.899279,1.27429632 C145.213763,1.24833792 144.977987,1.42881792 144.986127,2.15841792 C145.024835,5.63653632 145.003484,9.11542272 145.003331,12.5940019 C145.003331,12.8952115 145.003484,13.1962675 145.003484,13.5601459" id="Fill-19" fill="#3F3F3F"></path>
                <path d="M160.933632,19.0279526 C161.678285,18.796631 162.153984,18.9929318 162.581453,19.680599 C163.956019,21.8915174 165.407232,24.0545126 166.921882,26.3787878 L166.921882,18.9895526 L167.859763,18.9895526 L167.859763,27.8253926 C167.071795,28.0875878 166.598554,27.8127974 166.168474,27.122519 C164.792832,24.9146726 163.346995,22.750295 161.836646,20.4281702 L161.836646,27.8637926 C161.528525,27.8791526 161.263872,27.8923622 160.933632,27.9087974 L160.933632,19.0279526 Z" id="Fill-21" fill="#3F3F3F"></path>
                <path d="M75.4193818,19.0244966 C76.217641,18.777047 76.6716826,19.051991 77.086249,19.7156966 C78.4515994,21.902039 79.8851482,24.0456806 81.394729,26.3630438 L81.394729,18.989783 C81.7266586,18.973655 81.9943834,18.9604454 82.3227802,18.944471 L82.3227802,27.8260838 C81.5724442,28.0624742 81.096745,27.8574182 80.6744986,27.170519 C79.4435482,25.1677286 78.133033,23.213783 76.8517018,21.2421734 C76.7025562,21.012695 76.5400474,20.7919718 76.2995098,20.4460646 L76.2995098,27.8544998 L75.4193818,27.8544998 L75.4193818,19.0244966 Z" id="Fill-23" fill="#3F3F3F"></path>
                <path d="M47.3161267,24.6305894 C47.0457907,26.2372454 46.0197427,27.1081574 44.4192307,27.1143014 C42.8279347,27.1189094 41.7204787,26.2541414 41.5161907,24.6567014 C41.3979187,23.7397094 41.4055987,22.7643494 41.5822387,21.8581094 C41.8633267,20.4219494 42.9170227,19.7123174 44.4269107,19.7153894 C45.9291187,19.7184614 46.8353587,20.3850854 47.2132147,21.8243174 C47.3483827,22.3373414 47.3837107,22.8764774 47.4436147,23.2650854 C47.3944627,23.8195814 47.3837107,24.229847 47.3161267,24.6305894 M48.4312627,22.3634534 C48.1378867,20.1285734 46.7124787,18.8352614 44.5605427,18.7937894 C42.2073907,18.7492454 40.7942707,19.8843494 40.3780147,22.1714534 C40.3042867,22.5708134 40.2812467,22.9793894 40.2351667,23.3833574 C40.2474547,23.385047 40.2612787,23.3864294 40.2735667,23.3879654 C40.2735667,23.5415654 40.2674227,23.6951654 40.2751027,23.8472294 C40.3841587,26.3478374 41.8111027,27.9222374 44.0613427,28.0328294 C46.5665587,28.1557094 48.1240627,26.8439654 48.4589107,24.2650214 C48.5403187,23.641559 48.5126707,22.988759 48.4312627,22.3634534" id="Fill-25" fill="#3F3F3F"></path>
                <path d="M105.393884,24.5813914 C105.175772,26.254249 104.129756,27.119017 102.487772,27.1142554 C100.885571,27.109801 99.8151322,26.175913 99.5678362,24.5552794 C99.5108506,24.1774234 99.4970266,23.795113 99.4618522,23.406505 C99.4987162,23.0039194 99.5093146,22.593961 99.5785882,22.1929114 C99.8504602,20.6062234 100.893251,19.724713 102.4847,19.7153434 C104.118851,19.706281 105.138908,20.512681 105.384515,22.1545114 C105.50294,22.9486234 105.498332,23.784361 105.393884,24.5813914 M106.441436,21.7843354 C106.0175,19.9457434 104.61206,18.8398234 102.687452,18.7937434 C100.523228,18.7430554 99.0671002,19.6784794 98.6276506,21.6307354 C98.4050842,22.624681 98.3866522,23.7104794 98.5124506,24.7273114 C98.7614362,26.751913 100.252739,27.980713 102.286556,28.0343194 C104.476739,28.0926874 105.985244,26.994601 106.449116,24.9699994 C106.567388,24.4523674 106.601027,23.9132314 106.674908,23.386537 C106.598108,22.8411034 106.561244,22.3035034 106.441436,21.7843354" id="Fill-27" fill="#3F3F3F"></path>
                <path d="M151.294925,23.2571904 C151.294925,24.6185472 151.311206,25.8963456 151.276186,27.1724544 C151.271424,27.35232 151.030733,27.661824 150.873139,27.6796416 C149.686733,27.8141952 148.477286,28.061184 147.306701,27.9476736 C145.195162,27.7430784 143.962061,26.2181376 143.806925,23.9597568 C143.540429,20.0807424 146.464205,17.9069952 150.4128,19.05024 C150.630298,19.113216 150.841344,19.1987712 151.116288,19.2950784 C150.992333,19.6019712 150.883891,19.8707712 150.766541,20.1619968 C148.812749,19.61856 146.873549,19.1582208 145.48055,21.1627008 C144.611328,22.413312 144.711629,24.7143936 145.575782,25.9012608 C146.414899,27.053568 148.058112,27.4048512 150.199757,26.8680192 L150.199757,24.1416192 L148.270848,24.1416192 L148.270848,23.2571904 L151.294925,23.2571904 Z" id="Fill-29" fill="#3F3F3F"></path>
                <path d="M63.6238387,23.1499469 C63.4287667,23.2050893 63.2260147,23.2543949 63.0247987,23.2605389 C62.4441907,23.2743629 61.8620467,23.2651469 61.2230707,23.2651469 L61.2230707,19.9335629 C62.0142643,19.9335629 62.7775027,19.8613709 63.5193907,19.9533773 C64.3734067,20.0595149 64.7973427,20.6445773 64.8142387,21.4955213 C64.8311347,22.3280333 64.4056627,22.9256909 63.6238387,23.1499469 M64.1076787,23.9133389 C64.2689587,23.8165709 64.3950643,23.7382349 64.5239347,23.6645069 C65.5745587,23.0699213 66.0322867,22.1776589 65.8556467,21.0608333 C65.6682547,19.8765773 65.0722867,19.1915213 63.7866547,19.0517453 C62.6269747,18.9259469 61.4442547,19.0256333 60.2139187,19.0256333 L60.2139187,27.8470349 L61.2169267,27.8470349 L61.2169267,24.2650829 C62.5117747,23.9240909 63.4087987,24.2067149 63.8880307,25.4862029 C64.1092147,26.0775629 64.5654067,26.5767629 64.8157747,27.1589069 C65.1321907,27.8975693 65.6344627,28.0496333 66.4331827,27.8086349 C65.6559667,26.5074893 64.8910387,25.2266189 64.1076787,23.9133389" id="Fill-31" fill="#3F3F3F"></path>
                <polygon id="Fill-33" fill="#3F3F3F" points="90.3943987 27.874944 89.3929267 27.874944 89.3929267 18.999936 90.3540019 18.999936 90.3540019 22.726272 95.1251251 22.726272 95.1251251 18.9985536 96.1322803 18.9985536 96.1322803 27.847296 95.1288115 27.847296 95.1288115 23.7503232 90.3943987 23.7503232"></polygon>
                <path d="M108.814787,18.989399 L109.824092,18.989399 C109.824092,20.0197478 109.823939,21.010775 109.824092,22.0018022 C109.824092,22.8713318 109.820559,23.7408614 109.82486,24.610391 C109.835305,26.661719 111.517532,27.7416806 113.407887,26.8976486 C114.285251,26.5061222 114.603971,25.7522534 114.608732,24.8429414 C114.617027,23.1551846 114.61119,21.4672742 114.611343,19.7795174 L114.611343,18.9884774 L115.660892,18.9884774 L115.660892,21.5179622 C115.660892,22.4896358 115.661507,23.461463 115.660739,24.4331366 C115.658588,27.0738278 113.853788,28.511063 111.252572,27.9444326 C109.863567,27.6418406 108.92031,26.8119398 108.845199,25.4292326 C108.729385,23.294807 108.814787,21.1494758 108.814787,18.989399" id="Fill-35" fill="#3F3F3F"></path>
                <path d="M56.5248614,18.9817498 L57.5499878,18.9817498 L57.5499878,22.2945946 C57.5499878,23.0106778 57.551063,23.7269146 57.5496806,24.4429978 C57.5444582,27.092905 55.7556326,28.5123226 53.139671,27.943081 C51.7429862,27.6391066 50.7794534,26.6975386 50.7316838,25.338025 C50.658263,23.2472218 50.7123302,21.1519642 50.7123302,19.0037146 L51.7131878,19.0037146 C51.7131878,19.5368602 51.7128806,20.0655514 51.7131878,20.594089 C51.7141094,22.0262554 51.6829286,23.459497 51.7253222,24.8905882 C51.7697126,26.3897242 52.6126694,27.1260826 54.1637222,27.1134874 C55.6301414,27.1016602 56.4829286,26.3207578 56.515031,24.8666266 C56.551895,23.2048282 56.5244006,21.541801 56.5248614,19.8793882 C56.5248614,19.6022938 56.5248614,19.3251994 56.5248614,18.9817498" id="Fill-37" fill="#3F3F3F"></path>
                <path d="M137.437932,24.0607488 C137.904876,22.7766528 138.353388,21.5478528 138.838764,20.2099968 C139.327212,21.5217408 139.784786,22.7536128 140.271852,24.0607488 L137.437932,24.0607488 Z M142.568018,27.2402688 C141.551186,24.6505728 140.542188,22.0578048 139.497554,19.4788608 C139.399404,19.2378624 139.0707,18.9366528 138.852588,18.9397248 C138.628332,18.9412608 138.301164,19.2361728 138.199788,19.4788608 C137.493074,21.1746048 136.831212,22.8903168 136.158444,24.5998848 C135.736044,25.6750848 135.318252,26.7502848 134.888018,27.8515968 C135.903468,27.9406848 135.903468,27.9406848 136.23678,27.0759168 C137.023212,25.0407168 137.023212,25.0407168 139.198188,25.0407168 C140.628204,25.0407168 140.628204,25.0407168 141.19038,26.4814848 C141.284076,26.7195648 141.417554,26.9484288 141.466706,27.1941888 C141.617388,27.9468288 142.082642,28.0297728 142.749266,27.8224128 C142.68798,27.6227328 142.640364,27.4261248 142.568018,27.2402688 Z" id="Fill-39" fill="#3F3F3F"></path>
                <polygon id="Fill-41" fill="#3F3F3F" points="158.629478 18.9940378 158.629478 19.8423706 154.752768 19.8423706 154.752768 22.7858074 158.375117 22.7858074 158.375117 23.689129 154.746931 23.689129 154.746931 26.9574298 158.603059 26.9574298 158.603059 27.8618266 153.693082 27.8618266 153.693082 18.9940378"></polygon>
                <path d="M126.438574,19.8643507 L126.438574,22.7441971 L130.069217,22.7441971 L130.069217,23.7068083 L126.453934,23.7068083 L126.453934,26.9605171 L130.305454,26.9605171 C130.320507,27.2833843 130.332948,27.5471155 130.34754,27.8609203 L125.419284,27.8609203 L125.419284,19.0115635 L130.301,19.0115635 L130.301,19.8643507 L126.438574,19.8643507 Z" id="Fill-43" fill="#3F3F3F"></path>
                <path d="M123.100785,19.2595507 C122.987735,19.5825715 122.905559,19.8171187 122.826301,20.0436787 C122.060913,19.9301683 121.34145,19.7653555 120.615537,19.7300275 C119.654461,19.6831795 119.050967,20.0774707 118.910116,20.7109171 C118.719959,21.5657011 119.040522,22.1378611 119.993917,22.5754675 C120.689572,22.8948019 121.413642,23.1540787 122.100234,23.4907699 C122.998487,23.9311411 123.396157,24.6940723 123.336714,25.6855603 C123.277117,26.6804275 122.755953,27.3703987 121.842801,27.7267507 C120.600023,28.2116659 119.320381,28.1493043 118.085898,27.7351987 C117.830154,27.6493363 117.724017,27.1169587 117.515428,26.7278899 C118.566513,26.8774963 119.393956,27.0203443 120.227236,27.1011379 C120.547492,27.1321651 120.888023,27.0481459 121.207511,26.9693491 C121.811927,26.8205107 122.183485,26.4257587 122.273649,25.8026035 C122.363965,25.1783731 122.119434,24.6793267 121.581066,24.3790387 C121.115658,24.1194547 120.595569,23.9592499 120.118026,23.7187123 C119.573975,23.4446899 118.978621,23.2118323 118.530877,22.8184627 C117.212836,21.6600115 117.676554,19.5240499 119.352791,18.9876787 C120.590961,18.5916979 121.818993,18.7671091 123.100785,19.2595507" id="Fill-45" fill="#3F3F3F"></path>
                <polygon id="Fill-47" fill="#3F3F3F" points="166.19305 13.5627264 167.357491 13.5627264 167.357491 0.267264 166.19305 0.267264"></polygon>
                <path d="M176.501084,26.8261478 C176.755753,27.5310182 176.489871,27.8365286 175.83999,27.8928998 C175.662889,27.9082598 175.489014,27.9601766 175.312374,27.9856742 C173.174723,28.2934886 171.471759,27.5850854 170.68886,26.0644454 C169.722255,24.1871462 170.047119,21.2856422 171.373609,19.9457894 C172.634665,18.6722918 175.245865,18.3795302 176.901059,19.3527398 C176.783247,19.5940454 176.6639,19.838423 176.526428,20.1198182 C174.773545,19.5776102 173.00223,19.238615 171.866204,21.0911846 C170.918031,22.6373222 170.928015,24.370391 171.929334,25.8870374 C173.059215,27.5976806 174.808105,27.158231 176.501084,26.8261478" id="Fill-49" fill="#3F3F3F"></path>
                <path d="M136.664678,13.5648 L135.573658,13.5648 L135.573658,0.2762496 C135.906509,0.2601216 136.247194,0.2435328 136.664678,0.2235648 L136.664678,13.5648 Z" id="Fill-50" fill="#3F3F3F"></path>
                <path d="M39.2426035,19.0317005 C38.6851891,20.0611277 38.2125619,21.1125197 37.5818803,22.0583885 C36.5472307,23.6108237 36.0578611,25.2601805 36.2976307,27.1178189 C36.3202099,27.2932301 36.2965555,27.4753997 36.2884147,27.6541901 C36.2862643,27.7022669 36.2619955,27.7494221 36.2317363,27.8517197 L35.2259635,27.8517197 C35.2259635,26.9593037 35.2669747,26.0929997 35.2099891,25.2331469 C35.1774259,24.7428557 35.0697523,24.2198477 34.8488755,23.7865421 C34.0390963,22.1970893 33.1675699,20.6391245 32.3014195,19.0358477 C33.0371635,18.8102093 33.4743091,18.9797837 33.7987123,19.6597709 C34.3810099,20.8798157 35.0491699,22.0591565 35.7512755,23.3876429 C36.0080947,22.9402061 36.2203699,22.5869261 36.4166707,22.2250445 C36.8796211,21.3716429 37.3342771,20.5137869 37.7936947,19.6585421 C38.2124083,18.8787149 38.2131763,18.8791757 39.2426035,19.0317005" id="Fill-51" fill="#3F3F3F"></path>
                <path d="M181.580974,27.878999 L180.505774,27.878999 C180.505774,27.2211302 180.458772,26.5847654 180.516219,25.958231 C180.611451,24.9202022 180.32468,24.0247142 179.797217,23.1347558 C179.006638,21.8015078 178.313441,20.4106598 177.572628,19.0328678 C178.341704,18.7844966 178.763028,19.0079846 179.085588,19.693655 C179.659899,20.9144678 180.333128,22.0888934 181.035387,23.4156902 C181.740104,22.1050214 182.420552,20.9229158 183.015905,19.6993382 C183.337236,19.0391654 183.732756,18.758231 184.509512,19.0420838 C183.775611,20.3911526 183.091476,21.7591142 182.301512,23.0630246 C181.749473,23.9747942 181.479137,24.8994662 181.571451,25.9591526 C181.624136,26.5654118 181.580974,27.180119 181.580974,27.878999" id="Fill-52" fill="#3F3F3F"></path>
                <polygon id="Fill-53" fill="#3F3F3F" points="71.679744 27.8642688 72.621312 27.8642688 72.621312 18.9766656 71.679744 18.9766656"></polygon>
                <path d="M188.758932,1.31414016 C188.703636,1.75620096 188.648033,2.19810816 188.589972,2.66090496 C188.192916,2.39563776 188.16235,1.76541696 188.448507,0.41066496 C189.537838,0.25522176 189.10484,1.41428736 189.605115,1.75113216 C190.066222,1.39585536 189.659643,0.28932096 190.776468,0.41051136 C190.839137,1.15685376 190.900116,1.88199936 190.961096,2.60714496 L190.658657,2.67964416 C190.5602,2.21469696 190.461588,1.74990336 190.323809,1.09940736 C190.144558,1.59277056 190.040264,1.93990656 189.889736,2.26569216 C189.827681,2.40009216 189.666401,2.48871936 189.55028,2.59823616 C189.440456,2.48119296 189.290388,2.38196736 189.228795,2.24342016 C189.095624,1.94466816 189.008072,1.62579456 188.90178,1.31521536 C188.854164,1.31490816 188.806548,1.31460096 188.758932,1.31414016" id="Fill-54" fill="#3F3F3F"></path>
                <polygon id="Fill-55" fill="#3F3F3F" points="84.4042752 24.9242112 87.3375744 24.9242112 87.3375744 24.125184 84.4042752 24.125184"></polygon>
                <path d="M186.899988,0.8957952 C186.644091,0.7962624 186.411694,0.705792 186.179451,0.6153216 C186.190971,0.5638656 186.202491,0.5124096 186.213857,0.4609536 L188.006216,0.4609536 C187.147745,0.830208 187.424225,1.5757824 187.383982,2.2162944 C187.374152,2.3745024 187.277537,2.5273344 187.220859,2.6827776 C187.140526,2.671104 187.060347,2.6591232 186.980014,2.6474496 C186.953288,2.0610048 186.926408,1.47456 186.899988,0.8957952" id="Fill-56" fill="#3F3F3F"></path>
                <path d="M8.88846336,21.7048474 L7.89006336,21.7048474 L4.56308736,13.6637338 L1.13319936,21.7048474 L0.13172736,21.7048474 L4.14529536,12.2922394 C4.14683136,12.2891674 4.14836736,12.2860954 4.14990336,12.2830234 L4.98855936,12.2830234 C4.99009536,12.2874778 4.99316736,12.2922394 4.99470336,12.2968474 L8.88846336,21.7048474 Z" id="Fill-57" fill="#FFFFFF"></path>
                <path d="M27.9086746,5.712 L24.9764506,12.319872 C24.8904346,12.511872 24.6999706,12.637824 24.4895386,12.63936 L24.4849306,12.63936 C24.2760346,12.63936 24.0840346,12.51648 23.9964826,12.326016 L23.2208026,10.636416 L18.8800666,21.704832 L17.7203866,21.704832 L14.2152346,13.46112 L10.9005466,21.704832 L9.73933056,21.704832 L5.77645056,12.283008 L6.94227456,12.283008 L10.3107226,20.291712 L13.5301786,12.283008 L14.8818586,12.283008 L18.2840986,20.282496 L22.6816666,9.066624 C22.7600026,8.865408 22.9520026,8.731776 23.1670426,8.725632 C23.3805466,8.719488 23.5817626,8.842368 23.6708506,9.038976 L24.4772506,10.794624 L26.9256346,5.275776 L27.9086746,5.712 Z" id="Fill-58" fill="#FFFFFF"></path>
                <polygon id="Fill-59" fill="#FFFFFF" points="27.9263078 4.13968896 26.2488422 5.40381696 28.3877222 6.13787136"></polygon>
                <polygon id="Fill-60" fill="#303030" points="0.24192 28.0998912 28.2438144 28.0998912 28.2438144 0 0.24192 0"></polygon>
                <path d="M8.75675136,21.6566938 L7.75835136,21.6566938 L4.43137536,13.6157338 L1.00148736,21.6566938 L1.536e-05,21.6566938 L4.01358336,12.2442394 L4.01819136,12.2348698 L4.85684736,12.2348698 C4.85838336,12.2394778 4.86145536,12.2442394 4.86299136,12.2486938 L8.75675136,21.6566938 Z" id="Fill-61" fill="#FFFFFF"></path>
                <path d="M27.7769779,5.6638464 L24.8447539,12.2717184 C24.7587379,12.4637184 24.5682739,12.589824 24.3578419,12.59136 L24.3532339,12.59136 C24.1443379,12.59136 23.9523379,12.46848 23.8647859,12.278016 L23.0891059,10.588416 L18.7483699,21.6566784 L17.5886899,21.6566784 L14.0835379,13.4129664 L10.7688499,21.6566784 L9.60763392,21.6566784 L5.64475392,12.2348544 L6.81057792,12.2348544 L10.1790259,20.243712 L13.3984819,12.2348544 L14.7501619,12.2348544 L18.1524019,20.2343424 L22.5499699,9.018624 C22.6283059,8.8172544 22.8203059,8.6836224 23.0353459,8.6774784 C23.2488499,8.6713344 23.4500659,8.794368 23.5391539,8.9908224 L24.3455539,10.746624 L26.7939379,5.2276224 L27.7769779,5.6638464 Z" id="Fill-62" fill="#FFFFFF"></path>
                <polygon id="Fill-63" fill="#FFFFFF" points="27.7946112 4.09168896 26.1171456 5.35566336 28.2560256 6.08987136"></polygon>
            </g>
        </g>
    </g>
</svg>