<?xml version="1.0" encoding="UTF-8"?>
<svg width="147px" height="38px" viewBox="0 0 147 38" version="1.1" xmlns="http://www.w3.org/2000/svg" xmlns:xlink="http://www.w3.org/1999/xlink">
    <!-- Generator: Sketch 51.3 (57544) - http://www.bohemiancoding.com/sketch -->
    <title>Group 10</title>
    <desc>Created with Sketch.</desc>
    <defs></defs>
    <g id="[BRANDED]-Unbounce-Landing-Page-Template" stroke="none" stroke-width="1" fill="none" fill-rule="evenodd">
        <g id="Landing_Page_Template-V1" transform="translate(-705.000000, -810.000000)">
            <g id="Group-10" transform="translate(705.000000, 810.000000)">
                <g id="Group-3" transform="translate(0.927152, 0.044368)">
                    <polygon id="Clip-2" points="0 0.03184928 36.6518486 0.03184928 36.6518486 37.3328 0 37.3328"></polygon>
                    <path d="M23.6303126,37.3331485 L13.0214198,37.3331485 C5.82995424,37.3331485 -0.00011616,31.5019165 -0.00011616,24.3104509 L-0.00011616,13.0545469 C-0.00011616,5.86191968 5.82995424,0.03184928 13.0214198,0.03184928 L23.6303126,0.03184928 C30.8217782,0.03184928 36.6518486,5.86191968 36.6518486,13.0545469 L36.6518486,24.3104509 C36.6518486,31.5019165 30.8217782,37.3331485 23.6303126,37.3331485" id="Fill-1" fill="#303030"></path>
                </g>
                <path d="M19.607074,14.2397227 C19.3782388,14.9808235 18.4698676,14.8762795 18.160882,14.4209323 C17.9262388,14.0701291 17.9134612,13.2581707 17.9831572,12.2952043 C17.9912884,12.1732363 18.0818932,12.0663691 18.2050228,12.0663691 L19.9404532,12.0663691 C20.0868148,12.0663691 20.1925204,12.2069227 20.1518644,12.3474763 L19.607074,14.2397227 Z M21.6294196,8.44566192 L21.1903348,9.59796912 L15.512434,9.59796912 L15.512434,13.6240747 C15.512434,13.8401323 15.5252116,14.0573515 15.5623828,14.2699243 C15.7168756,15.1864267 16.3267156,17.3864971 18.5860276,17.3864971 L17.045746,24.1946347 C17.045746,24.1946347 16.2825748,24.6290731 16.2233332,22.1072395 L13.7537716,22.1072395 C13.7537716,22.1072395 13.4250388,24.9066955 16.0049524,27.2101483 L15.564706,29.1325963 L18.1446196,29.1325963 L23.8538836,8.44566192 L21.6294196,8.44566192 Z" id="Fill-4" fill="#FFFFFF"></path>
                <path d="M22.8638519,17.059739 C24.1009559,17.3838254 25.2428087,18.2166926 25.9525463,19.4073326 C26.6855159,20.6037806 26.7598583,22.1429006 26.4206711,23.448539 C26.1035543,24.7855406 25.2102839,26.0365838 24.0335831,26.7393518 C22.8592055,27.4432814 21.4920023,27.6907022 20.2293431,27.485099 C21.4536695,27.1447502 22.5653207,26.6278382 23.4388439,25.9006766 C24.2891351,25.156091 24.9001367,24.2175182 25.1463959,23.1186446 C25.4414423,22.0209326 25.4437655,20.9092814 25.0360439,19.8615182 C24.6167063,18.8230478 23.8442423,17.8647278 22.8638519,17.059739" id="Fill-6" fill="#FFFFFF"></path>
                <g id="Group-8" transform="translate(48.146326, 10.260290)" fill="#000000">
                    <polygon id="Fill-8" points="0.386150395 1.05134832 9.24625439 1.05134832 9.24625439 2.09678832 1.51348319 2.09678832 1.51348319 7.61322672 8.76709439 7.61322672 8.76709439 8.65692432 1.51348319 8.65692432 1.51348319 15.6805387 0.386150395 15.6805387"></polygon>
                    <path d="M11.5087608,15.6798418 L12.5542008,15.6798418 L12.5542008,5.23066896 L11.5087608,5.23066896 L11.5087608,15.6798418 Z M11.5087608,2.30517936 L12.5542008,2.30517936 L12.5542008,0.27876816 L11.5087608,0.27876816 L11.5087608,2.30517936 Z" id="Fill-10"></path>
                    <path d="M16.5049186,15.6796675 L16.5049186,6.21320832 L14.7085042,6.21320832 L14.7085042,5.23049472 L16.5049186,5.23049472 L16.5049186,3.74596992 C16.5049186,1.99311552 17.0067298,0.06950592 19.3485154,0.06950592 C19.6621474,0.06950592 20.1203986,0.13223232 20.3713042,0.21586752 L20.3713042,1.21774752 C20.0576722,1.13411232 19.5576034,1.09403712 19.242229,1.09403712 C18.0103522,1.09403712 17.552101,1.97046432 17.552101,3.78952992 L17.552101,5.23049472 L19.8276754,5.23049472 L19.8276754,6.21320832 L17.552101,6.21320832 L17.552101,15.6796675 L16.5049186,15.6796675 Z" id="Fill-12"></path>
                    <path d="M19.7260934,5.23032048 L21.6688694,5.23032048 L21.6688694,1.97029008 L22.7143094,1.97029008 L22.7143094,5.23032048 L25.2024566,5.23032048 L25.2024566,6.21303408 L22.7143094,6.21303408 L22.7143094,13.0049093 C22.7143094,14.1758021 22.965215,14.8448837 23.9688374,14.8448837 C24.2824694,14.8448837 24.7198118,14.8222325 25.056095,14.7176885 L25.056095,15.6376757 C24.698903,15.7840373 24.1970918,15.8258549 23.758007,15.8258549 C22.4215862,15.8258549 21.6688694,15.1567733 21.6688694,13.4840693 L21.6688694,6.21303408 L19.7260934,6.21303408 L19.7260934,5.23032048 Z" id="Fill-13"></path>
                    <path d="M27.6911266,5.23032048 C29.8029154,11.2084949 30.7211602,13.6739909 31.0766098,14.8013237 L31.0975186,14.8013237 C31.5156946,13.5276293 32.3520466,11.1022085 34.3784578,5.23032048 L35.4657154,5.23032048 L31.5366034,16.2858485 C30.428437,19.3786085 29.6774626,20.0685989 27.797413,20.0685989 C27.4193122,20.0685989 27.1684066,20.0476901 26.8356082,20.0041301 L26.8356082,18.9604325 C27.1474978,19.0022501 27.440221,19.0231589 27.7747618,19.0231589 C29.2801954,19.0231589 29.7593554,18.2913509 30.532981,16.1394869 L26.542885,5.23032048 L27.6911266,5.23032048 Z" id="Fill-14"></path>
                    <path d="M55.1372371,6.27506352 L51.5008483,11.9169547 C49.7253427,14.6560075 48.4499059,15.8896267 46.1098627,15.8896267 C43.7280019,15.8896267 42.3271123,13.9869259 42.3271123,12.1696027 C42.3271123,10.3923547 43.1425555,9.03502512 46.2353155,7.36232112 C48.3662707,5.98234032 49.1608051,5.39863632 49.1608051,4.06047312 C49.1608051,2.91048912 48.4289971,1.80406512 47.0298499,1.80406512 C45.7125955,1.80406512 44.7926083,2.61776592 44.7926083,4.14410832 C44.7926083,5.08326192 45.4425235,5.96143152 46.6935667,7.15323312 L55.3463251,15.6787963 L53.7799075,15.6787963 L45.8816083,7.88504112 C44.5207939,6.59043792 43.7280019,5.62863312 43.7280019,4.14410832 C43.7280019,2.49405552 44.8344259,0.84226032 47.0716675,0.84226032 C48.9517171,0.84226032 50.2463203,2.26231632 50.2463203,4.06047312 C50.2463203,5.48227152 49.4744371,6.40051632 46.9026547,7.98958512 C43.9579987,9.66054672 43.4561875,10.6850779 43.4561875,12.0859675 C43.4561875,13.5896587 44.7507907,14.8650955 46.1098627,14.8650955 C47.8017331,14.8650955 48.9308083,14.2796491 50.8126003,11.2705243 L53.9262691,6.27506352 L55.1372371,6.27506352 Z" id="Fill-15"></path>
                    <polygon id="Fill-16" points="63.7182086 1.05134832 72.5783126 1.05134832 72.5783126 2.09678832 64.8455414 2.09678832 64.8455414 7.61322672 72.0974102 7.61322672 72.0974102 8.65692432 64.8455414 8.65692432 64.8455414 15.6805387 63.7182086 15.6805387"></polygon>
                    <path d="M74.841516,15.6798418 L75.886956,15.6798418 L75.886956,5.23066896 L74.841516,5.23066896 L74.841516,15.6798418 Z M74.841516,2.30517936 L75.886956,2.30517936 L75.886956,0.27876816 L74.841516,0.27876816 L74.841516,2.30517936 Z" id="Fill-17"></path>
                    <path d="M79.837151,15.6796675 L79.837151,6.21320832 L78.0407366,6.21320832 L78.0407366,5.23049472 L79.837151,5.23049472 L79.837151,3.74596992 C79.837151,1.99311552 80.3372198,0.06950592 82.6790054,0.06950592 C82.9926374,0.06950592 83.4508886,0.13223232 83.7035366,0.21586752 L83.7035366,1.21774752 C83.3899046,1.13411232 82.8880934,1.09403712 82.5744614,1.09403712 C81.3408422,1.09403712 80.882591,1.97046432 80.882591,3.78952992 L80.882591,5.23049472 L83.1581654,5.23049472 L83.1581654,6.21320832 L80.882591,6.21320832 L80.882591,15.6796675 L79.837151,15.6796675 Z" id="Fill-18"></path>
                    <path d="M83.0565835,5.23032048 L84.9993595,5.23032048 L84.9993595,1.97029008 L86.0447995,1.97029008 L86.0447995,5.23032048 L88.5329467,5.23032048 L88.5329467,6.21303408 L86.0447995,6.21303408 L86.0447995,13.0049093 C86.0447995,14.1758021 86.2957051,14.8448837 87.2993275,14.8448837 C87.6112171,14.8448837 88.0503019,14.8222325 88.3865851,14.7176885 L88.3865851,15.6376757 C88.0293931,15.7840373 87.5275819,15.8258549 87.0884971,15.8258549 C85.7520763,15.8258549 84.9993595,15.1567733 84.9993595,13.4840693 L84.9993595,6.21303408 L83.0565835,6.21303408 L83.0565835,5.23032048 Z" id="Fill-19"></path>
                    <path d="M91.0214424,5.23032048 C93.1332312,11.2084949 94.051476,13.6739909 94.4069256,14.8013237 L94.4278344,14.8013237 C94.8460104,13.5276293 95.6823624,11.1022085 97.7087736,5.23032048 L98.7960312,5.23032048 L94.8669192,16.2858485 C93.7587528,19.3786085 93.0077784,20.0685989 91.1277288,20.0685989 C90.7513704,20.0685989 90.4987224,20.0476901 90.165924,20.0041301 L90.165924,18.9604325 C90.4778136,19.0022501 90.7705368,19.0231589 91.10682,19.0231589 C92.6105112,19.0231589 93.0896712,18.2913509 93.8650392,16.1394869 L89.8732008,5.23032048 L91.0214424,5.23032048 Z" id="Fill-20"></path>
                </g>
            </g>
        </g>
    </g>
</svg>