<?xml version="1.0" encoding="UTF-8"?>
<svg width="246px" height="24px" viewBox="0 0 246 24" version="1.1" xmlns="http://www.w3.org/2000/svg" xmlns:xlink="http://www.w3.org/1999/xlink">
    <!-- Generator: Sketch 51.3 (57544) - http://www.bohemiancoding.com/sketch -->
    <title>campaign-monitor-logo 2</title>
    <desc>Created with Sketch.</desc>
    <defs></defs>
    <g id="[BRANDED]-Unbounce-Landing-Page-Template" stroke="none" stroke-width="1" fill="none" fill-rule="evenodd">
        <g id="Landing_Page_Template-V1" transform="translate(-899.000000, -824.000000)">
            <g id="campaign-monitor-logo-2" transform="translate(899.000000, 824.000000)">
                <g id="campaign-monitor-logo">
                    <g id="Group-3" transform="translate(119.064288, 0.055346)">
                        <g id="Fill-1-Clipped">
                            <polygon id="path-1" points="3.52530538 0.0375165089 0.0657265133 0.0375165089 0.0657265133 3.11420454 3.52530538 3.11420454"></polygon>
                            <path d="M1.79457024,0.0374793638 C0.817467597,0.0374793638 0.0657265133,0.243448712 0.0657265133,1.13047271 L0.0657265133,1.99827413 C0.0657265133,2.88427663 0.817467597,3.11420454 1.79457024,3.11420454 C2.77356429,3.11420454 3.52530538,2.88427663 3.52530538,1.99827413 L3.52530538,1.13047271 C3.52530538,0.243448712 2.77356429,0.0374793638 1.79457024,0.0374793638" id="Fill-1" fill="#303030" fill-rule="nonzero"></path>
                        </g>
                    </g>
                    <path d="M121.562028,4.90528354 L120.182906,4.90528354 C119.726319,4.90528354 119.355319,5.26865507 119.355319,5.71783169 L119.355319,17.3493424 C119.355319,17.7976832 119.726319,18.1629121 120.182906,18.1629121 L121.562028,18.1629121 C122.01852,18.1629121 122.38952,17.7976832 122.38952,17.3493424 L122.38952,5.71783169 C122.38952,5.26865507 122.01852,4.90528354 121.562028,4.90528354" id="Fill-4" fill="#303030" fill-rule="nonzero"></path>
                    <path d="M81.2971619,4.76980623 C79.2915104,4.76980623 77.8865705,5.63110726 76.8341902,7.01011756 C76.1329498,5.63110726 74.7785104,4.76980623 72.8729145,4.76980623 C70.8424853,4.76980623 69.6896707,5.85332758 68.8369283,7.01011756 L68.8363609,5.71691235 C68.8363609,5.26866436 68.4663064,4.90529282 68.0083959,4.90529282 L66.6306926,4.90529282 C66.1737278,4.90529282 65.8032005,5.26866436 65.8032005,5.71691235 L65.8032005,17.3493517 C65.8032005,17.7985283 66.1737278,18.1629213 66.6306926,18.1629213 L68.0083959,18.1629213 C68.4663064,18.1629213 68.8363609,17.7985283 68.8363609,17.3493517 L68.8369283,10.7038221 C68.8369283,8.70959684 69.989743,7.47749522 71.6699775,7.47749522 C73.3493608,7.47749522 74.3521867,8.61041956 74.3521867,10.6295321 L74.3521867,17.3493517 C74.3521867,17.7985283 74.7231869,18.1629213 75.1801516,18.1629213 L76.5584227,18.1629213 C77.0153873,18.1629213 77.3859146,17.7985283 77.3859146,17.3493517 L77.3859146,10.7038221 C77.3859146,8.61041956 78.5639792,7.47749522 80.219058,7.47749522 C81.9235971,7.47749522 82.901173,8.58655382 82.901173,10.6533049 L82.9021182,17.3493517 C82.9021182,17.7985283 83.2721732,18.1629213 83.7286649,18.1629213 L85.1074083,18.1629213 C85.5643729,18.1629213 85.9349002,17.7985283 85.9349002,17.3493517 L85.9349002,9.74250801 C85.9349002,6.56669843 84.1803336,4.76980623 81.2971619,4.76980623" id="Fill-6" fill="#303030" fill-rule="nonzero"></path>
                    <g id="Group-10" transform="translate(207.487726, 0.055346)">
                        <g id="Fill-8-Clipped">
                            <polygon id="path-3" points="3.51929069 0.0375165089 0.0576312765 0.0375165089 0.0576312765 3.11420454 3.51929069 3.11420454"></polygon>
                            <path d="M1.78846099,0.0374793638 C0.811358339,0.0374793638 0.0576312765,0.243448712 0.0576312765,1.13047271 L0.0576312765,1.99827413 C0.0576312765,2.88427663 0.811358339,3.11420454 1.78846099,3.11420454 C2.7675496,3.11420454 3.51929069,2.88427663 3.51929069,1.99827413 L3.51929069,1.13047271 C3.51929069,0.243448712 2.7675496,0.0374793638 1.78846099,0.0374793638" id="Fill-8" fill="#303030" fill-rule="nonzero"></path>
                        </g>
                    </g>
                    <path d="M209.979395,4.90528354 L208.600179,4.90528354 C208.143686,4.90528354 207.772781,5.26865507 207.772781,5.71783169 L207.772781,17.3493424 C207.772781,17.7976832 208.143686,18.1629121 208.600179,18.1629121 L209.979395,18.1629121 C210.435887,18.1629121 210.804901,17.7976832 210.804901,17.3493424 L210.804901,5.71783169 C210.804901,5.26865507 210.435887,4.90528354 209.979395,4.90528354" id="Fill-11" fill="#303030" fill-rule="nonzero"></path>
                    <path d="M42.9072798,3.54813312 C44.2272005,3.54813312 45.4747749,3.9610933 46.516942,4.73937514 C46.6562444,4.84421707 46.8233506,4.8995632 46.9991572,4.8995632 C47.2113734,4.8995632 47.4110117,4.81849411 47.5620409,4.67065678 L48.6231221,3.62920221 C48.7823789,3.47180002 48.8673978,3.25440857 48.8551982,3.03218826 C48.8426204,2.81089657 48.7343371,2.6039986 48.557112,2.46470462 C46.9433605,1.19620088 44.9891552,0.525825446 42.9072798,0.525825446 C37.9115919,0.525825446 33.8463834,4.51613334 33.8463834,9.42299551 C33.8463834,14.3289291 37.9115919,18.3202585 42.9072798,18.3202585 C44.9891552,18.3202585 46.9428876,17.6487687 48.5565445,16.3813793 C48.7332968,16.243014 48.8421475,16.0350945 48.8537797,15.8149172 C48.8663575,15.5916754 48.7814332,15.374191 48.6220819,15.2178104 L47.5610951,14.1763558 C47.4094987,14.0294471 47.2099549,13.9484709 46.9971711,13.9484709 C46.821932,13.9484709 46.6558662,14.001774 46.5159964,14.1068017 C45.4733563,14.8848978 44.2262548,15.2970222 42.9072798,15.2970222 C39.6093219,15.2970222 36.9253159,12.6627875 36.9253159,9.42299551 C36.9253159,6.18329642 39.6093219,3.54813312 42.9072798,3.54813312" id="Fill-13" fill="#303030" fill-rule="nonzero"></path>
                    <g id="Group-17" transform="translate(123.792814, 4.698479)">
                        <g id="Fill-15-Clipped">
                            <polygon id="path-5" points="0.0774816291 19.3154304 13.7658082 19.3154304 13.7658082 0.0827777625 0.0774816291 0.0827777625"></polygon>
                            <path d="M10.4572585,6.87698038 C10.4572585,9.36337772 8.71772832,11.0389913 6.73723241,11.0389913 C4.73101334,11.0389913 3.15631956,9.43776074 3.15631956,6.87698038 L3.15631956,6.82739173 C3.15631956,4.31722155 4.75673652,2.66825954 6.73723241,2.66825954 C8.71772832,2.66825954 10.4572585,4.34210874 10.4572585,6.82739173 L10.4572585,6.87698038 Z M12.938789,0.206842257 L11.5606128,0.206842257 C11.1031752,0.206842257 10.732175,0.570120928 10.732175,1.01929754 L10.732175,2.32299623 C9.75507239,0.968780265 8.37585588,0.0827777625 6.21964794,0.0827777625 C3.110642,0.0827777625 0.0774816291,2.49562789 0.0774816291,6.82739173 L0.0774816291,6.87698038 C0.0774816291,11.1848785 3.08539168,13.6227087 6.21964794,13.6227087 C8.42493793,13.6227087 9.80405992,12.6282426 10.732175,11.4216782 L10.7568579,11.3910336 L10.7568579,12.5945335 C10.7568579,14.8348449 8.99500907,16.8863664 6.5376886,16.8863664 C5.02834306,16.8863664 3.64430346,16.1996471 2.95176353,15.0447144 C2.71486437,14.6632346 2.20787179,14.5401916 1.81739011,14.7729054 L1.23464654,15.1524351 C0.843219155,15.3851488 0.717913209,15.8858643 0.953961236,16.2702227 C2.09325232,18.0985025 4.11346782,19.3154675 6.67074933,19.3154675 C11.0589161,19.3154675 13.7658082,16.2387423 13.7658082,12.5459663 L13.7658082,1.01929754 C13.7658082,0.570120928 13.3953755,0.206842257 12.938789,0.206842257 Z" id="Fill-15" fill="#303030" fill-rule="nonzero"></path>
                        </g>
                    </g>
                    <path d="M200.931171,4.78123762 C198.874073,4.78123762 197.646359,5.80560546 196.793617,7.01012685 L196.793617,5.71692164 C196.793617,5.26867365 196.422522,4.90530211 195.966125,4.90530211 L194.586908,4.90530211 C194.132402,4.90530211 193.761307,5.26867365 193.761307,5.71692164 L193.761307,17.349361 C193.761307,17.7985376 194.132402,18.1629306 194.586908,18.1629306 L195.966125,18.1629306 C196.422522,18.1629306 196.793617,17.7985376 196.793617,17.2272466 L196.793521,10.2231744 C196.793521,8.64562375 198.095852,7.36681228 199.702511,7.36681228 C201.309075,7.36681228 202.611405,8.64562375 202.611405,10.2231744 L202.611405,17.349361 C202.611405,17.7985376 202.982406,18.1629306 203.437006,18.1629306 L204.816223,18.1629306 C205.27262,18.1629306 205.643715,17.7985376 205.643715,17.349361 L205.643715,9.75393941 C205.643715,6.75076147 203.912885,4.78123762 200.931171,4.78123762" id="Fill-18" fill="#303030" fill-rule="nonzero"></path>
                    <path d="M146.857458,4.78123762 C144.80036,4.78123762 143.572645,5.80560546 142.719903,7.01012685 L142.719903,5.71692164 C142.719903,5.26867365 142.348808,4.90530211 141.892411,4.90530211 L140.513195,4.90530211 C140.058594,4.90530211 139.687594,5.26867365 139.687594,5.71692164 L139.687594,17.349361 C139.687594,17.7985376 140.058594,18.1629306 140.513195,18.1629306 L141.892411,18.1629306 C142.348808,18.1629306 142.719903,17.7985376 142.719903,17.2272466 L142.719809,10.2231744 C142.719809,8.64562375 144.022139,7.36681228 145.628703,7.36681228 C147.235362,7.36681228 148.537693,8.64562375 148.537693,10.2231744 L148.537693,17.349361 C148.537693,17.7985376 148.908693,18.1629306 149.363293,18.1629306 L150.74251,18.1629306 C151.198907,18.1629306 151.570002,17.7985376 151.570002,17.349361 L151.570002,9.75393941 C151.570002,6.75076147 149.839173,4.78123762 146.857458,4.78123762" id="Fill-20" fill="#303030" fill-rule="nonzero"></path>
                    <path d="M244.952596,4.93435884 C244.915241,4.91736497 244.884316,4.90650004 244.866348,4.90018538 C244.833153,4.89117771 244.797973,4.88300579 244.760334,4.87566964 C244.478041,4.81335881 244.186196,4.78122833 243.884705,4.78122833 C242.30377,4.78122833 240.937415,5.68701058 240.296227,6.99897404 L240.296227,5.71784098 C240.296227,5.2685715 239.925132,4.90529282 239.468735,4.90529282 L238.089518,4.90529282 C237.634918,4.90529282 237.261932,5.2685715 237.261932,5.71784098 L237.261932,17.3503732 C237.261932,17.7985283 237.634918,18.1629213 238.089518,18.1629213 L239.468735,18.1629213 C239.925132,18.1629213 240.296227,17.7985283 240.296227,17.3503732 L240.296227,12.4262385 C240.296227,8.45023147 242.409689,7.73491051 243.629555,7.83223059 C243.868439,7.85126743 244.078291,7.88274787 244.256935,7.90661353 C244.256935,7.90661353 244.323418,7.91404257 244.359071,7.91645699 C244.376094,7.91784993 244.393211,7.91859279 244.410612,7.91859279 C244.69404,7.91859279 244.930561,7.7207025 244.984088,7.45762265 L245.289078,5.54474501 C245.293523,5.5164219 245.295793,5.48726303 245.295793,5.45763985 C245.295793,5.22529751 245.154788,5.02471419 244.952596,4.93435884" id="Fill-22" fill="#303030" fill-rule="nonzero"></path>
                    <path d="M189.163364,11.5578892 L189.163364,11.599306 C189.163364,13.8725835 187.551882,15.7113568 185.1984,15.736244 C182.844823,15.7113568 181.233437,13.8725835 181.233437,11.599306 L181.233437,11.5578892 L181.233437,11.5164724 C181.233437,9.24319485 182.844823,7.40442162 185.1984,7.37953449 C187.551882,7.40442162 189.163364,9.24319485 189.163364,11.5164724 L189.163364,11.5578892 Z M185.1984,4.78123762 C181.136502,4.78123762 178.154788,7.80930279 178.154788,11.5259444 L178.154788,11.5578892 L178.154788,11.589834 C178.154788,15.3064756 181.136502,18.3345408 185.1984,18.3345408 C189.260204,18.3345408 192.242013,15.3064756 192.242013,11.589834 L192.242013,11.5578892 L192.242013,11.5259444 C192.242013,7.80930279 189.260204,4.78123762 185.1984,4.78123762 Z" id="Fill-24" fill="#303030" fill-rule="nonzero"></path>
                    <path d="M232.609913,11.5578892 L232.609913,11.599306 C232.609913,13.8725835 230.998431,15.7113568 228.644949,15.736244 C226.291373,15.7113568 224.679986,13.8725835 224.679986,11.599306 L224.679986,11.5578892 L224.679986,11.5164724 C224.679986,9.24319485 226.291373,7.40442162 228.644949,7.37953449 C230.998431,7.40442162 232.609913,9.24319485 232.609913,11.5164724 L232.609913,11.5578892 Z M228.644949,4.78123762 C224.583146,4.78123762 221.601337,7.80930279 221.601337,11.5259444 L221.601337,11.5578892 L221.601337,11.589834 C221.601337,15.3064756 224.583146,18.3345408 228.644949,18.3345408 C232.706753,18.3345408 235.688562,15.3064756 235.688562,11.589834 L235.688562,11.5578892 L235.688562,11.5259444 C235.688562,7.80930279 232.706753,4.78123762 228.644949,4.78123762 Z" id="Fill-26" fill="#303030" fill-rule="nonzero"></path>
                    <path d="M175.75664,0.707947667 L174.373357,0.707947667 C174.101467,0.707947667 173.864473,0.837676779 173.710985,1.0350099 L168.010652,8.68150588 L162.310225,1.0350099 C162.156831,0.837676779 161.919838,0.707947667 161.647853,0.707947667 L160.264664,0.707947667 C159.808173,0.707947667 159.437172,1.07224782 159.437172,1.52151731 L159.437172,17.3493981 C159.437172,17.7984818 159.808173,18.1628749 160.264664,18.1628749 L161.643786,18.1628749 C162.100373,18.1628749 162.471373,17.7984818 162.471373,17.3493981 L162.471373,6.37015463 L167.506402,12.7133234 C167.510185,12.7181522 167.514063,12.7228882 167.518034,12.7266956 L167.558794,12.7772129 L167.560686,12.7772129 C167.671333,12.8991415 167.830307,12.977239 168.010652,12.9775176 C168.190903,12.977239 168.349971,12.8991415 168.460524,12.7772129 L168.46251,12.7772129 L168.50327,12.7266956 C168.507147,12.7228882 168.511025,12.7181522 168.514902,12.7133234 L173.549932,6.37015463 L173.549932,17.3493981 C173.549932,17.7984818 173.920932,18.1628749 174.377424,18.1628749 L175.75664,18.1628749 C176.213132,18.1628749 176.584132,17.7984818 176.584132,17.3493981 L176.584132,1.52151731 C176.584132,1.07224782 176.213132,0.707947667 175.75664,0.707947667" id="Fill-28" fill="#303030" fill-rule="nonzero"></path>
                    <path d="M168.01499,12.9777857 C168.014316,12.9777857 168.013304,12.9774526 168.012293,12.9774526 C168.011619,12.9774526 168.010608,12.9777857 168.009934,12.9777857 L168.01499,12.9777857 Z" id="Fill-30" fill="#303030" fill-rule="nonzero"></path>
                    <path d="M98.6734082,11.5755331 C98.6734082,14.0619304 96.9338781,15.737544 94.9533821,15.737544 C92.9471626,15.737544 91.3724693,14.1363135 91.3724693,11.5755331 L91.3724693,11.5259444 C91.3724693,9.01577426 92.9728862,7.36681228 94.9533821,7.36681228 C96.9338781,7.36681228 98.6734082,9.04066147 98.6734082,11.5259444 L98.6734082,11.5755331 Z M95.6100796,4.78123762 C93.4543449,4.78123762 92.0751278,5.65581801 91.0975527,7.01012685 L91.0975527,5.71785026 C91.0975527,5.26858079 90.7271197,4.90530211 90.2695878,4.90530211 L88.8914117,4.90530211 C88.4344471,4.90530211 88.0639191,5.26858079 88.0639191,5.71785026 L88.0639191,22.7903691 C88.0639191,23.2395457 88.4344471,23.6047745 88.8914117,23.6047745 L90.2695878,23.6047745 C90.7271197,23.6047745 91.0975527,23.2395457 91.0975527,22.7903691 L91.0975527,16.0894935 C92.0256676,17.2960578 93.4047896,18.3212614 95.6100796,18.3212614 C98.7443362,18.3212614 101.752341,15.8834312 101.752341,11.5755331 L101.752341,11.5259444 C101.752341,7.19418061 98.7190856,4.78123762 95.6100796,4.78123762 Z" id="Fill-32" fill="#303030" fill-rule="nonzero"></path>
                    <path d="M59.9134807,11.5755331 C59.9134807,14.0619304 58.1739506,15.737544 56.1934547,15.737544 C54.1872356,15.737544 52.6125418,14.1363135 52.6125418,11.5755331 L52.6125418,11.5259444 C52.6125418,9.01577426 54.2129587,7.36681228 56.1934547,7.36681228 C58.1739506,7.36681228 59.9134807,9.04066147 59.9134807,11.5259444 L59.9134807,11.5755331 Z M63.8025989,16.058013 L63.8025043,16.0581059 L63.8025989,16.058013 C63.4791677,16.0581987 63.2176803,15.8010621 63.2176803,15.484029 L63.2176803,5.71785026 C63.2176803,5.26858079 62.8471529,4.90530211 62.3901881,4.90530211 L61.0119174,4.90530211 C60.5549526,4.90530211 60.1844253,5.26858079 60.1844253,5.71785026 L60.1844253,7.01012685 C59.2063769,5.65581801 57.827255,4.78123762 55.6710471,4.78123762 C52.562514,4.78123762 49.5287862,7.19418061 49.5287862,11.5259444 L49.5287862,11.5755331 C49.5287862,15.8834312 52.5372637,18.3210757 55.6710471,18.3210757 C57.9422528,18.3210757 59.5449394,17.3208521 60.2340748,16.0895863 C60.5807704,17.2864001 61.7022822,18.1630235 63.032322,18.1630235 L63.032322,18.1629306 L63.8025043,18.1630235 C64.1253681,18.1630235 64.3872339,17.9060725 64.3872339,17.5887609 L64.3873284,16.6322756 C64.3873284,16.3151497 64.125841,16.058013 63.8025989,16.058013 Z" id="Fill-34" fill="#303030" fill-rule="nonzero"></path>
                    <path d="M113.431677,11.5755331 C113.431677,14.0619304 111.692147,15.737544 109.711651,15.737544 C107.705432,15.737544 106.130738,14.1363135 106.130738,11.5755331 L106.130738,11.5259444 C106.130738,9.01577426 107.731155,7.36681228 109.711651,7.36681228 C111.692147,7.36681228 113.431677,9.04066147 113.431677,11.5259444 L113.431677,11.5755331 Z M117.320796,16.058013 L117.320701,16.0581059 L117.320796,16.058013 C116.997364,16.0581987 116.735877,15.8010621 116.735877,15.484029 L116.735877,5.71785026 C116.735877,5.26858079 116.36535,4.90530211 115.908384,4.90530211 L114.530114,4.90530211 C114.073149,4.90530211 113.702622,5.26858079 113.702622,5.71785026 L113.702622,7.01012685 C112.724573,5.65581801 111.345451,4.78123762 109.189243,4.78123762 C106.08071,4.78123762 103.046983,7.19418061 103.046983,11.5259444 L103.046983,11.5755331 C103.046983,15.8834312 106.05546,18.3210757 109.189243,18.3210757 C111.460449,18.3210757 113.063136,17.3208521 113.752272,16.0895863 C114.098967,17.2864001 115.220479,18.1630235 116.550518,18.1630235 L116.550518,18.1629306 L117.320701,18.1630235 C117.643564,18.1630235 117.905431,17.9060725 117.905431,17.5887609 L117.905525,16.6322756 C117.905525,16.3151497 117.644037,16.058013 117.320796,16.058013 Z" id="Fill-36" fill="#303030" fill-rule="nonzero"></path>
                    <path d="M220.099888,4.90528354 L217.219081,4.90528354 L217.219081,1.27695424 L217.219175,1.27695424 C217.218419,1.16449758 217.18409,1.05101943 217.113256,0.951842118 C216.927993,0.692012437 216.563612,0.6289587 216.298815,0.810969485 L216.298815,0.811155213 L214.857939,1.80376403 C214.451569,2.07603731 214.184786,2.53450019 214.184974,3.05388097 L214.184974,4.90528354 L213.207872,4.90528354 C212.751286,4.90528354 212.378394,5.26967657 212.378394,5.71699593 L212.378394,6.55424554 C212.378394,7.00342216 212.751286,7.36679368 213.207872,7.36679368 L214.184974,7.36679368 L214.184974,14.5187961 C214.184974,17.3741367 215.762316,18.3345222 217.996072,18.3345222 C219.179149,18.3345222 220.395137,17.8854385 220.395137,17.8854385 C220.395137,17.8854385 220.806992,17.7642527 220.702018,17.2930676 C220.667122,17.1310223 220.461148,16.0179707 220.461148,16.0179707 C220.410647,15.7443044 220.296027,15.529606 219.901763,15.5879237 C219.707421,15.6183826 219.340392,15.6755861 218.846923,15.6755861 C217.81932,15.6727074 217.219081,15.2083012 217.219081,14.0504898 L217.219081,7.36679368 L220.099888,7.36679368 C220.558271,7.36679368 220.92738,7.00342216 220.92738,6.55424554 L220.92738,5.71699593 C220.92738,5.26967657 220.558271,4.90528354 220.099888,4.90528354" id="Fill-38" fill="#303030" fill-rule="nonzero"></path>
                    <path d="M24.2305094,2.29880551 C23.9361114,1.88695968 23.3582855,1.78601798 22.9376358,2.07565657 L0.167134485,17.7314629 C0.334713451,17.9658482 0.611899653,18.1202788 0.92634664,18.1197216 L0.927481488,18.1202788 L0.927481488,18.1197216 L23.4707298,18.1197216 C23.9832075,18.1197216 24.3986558,17.711776 24.3986558,17.2079962 L24.3986558,2.80704277 C24.3957241,2.63125379 24.3412515,2.45435044 24.2305094,2.29880551" id="Fill-40" fill="#303030" fill-rule="nonzero"></path>
                    <path d="M1.4609538,2.07494153 C1.04087154,1.78586012 0.462478227,1.88615177 0.16817476,2.29809047 C0.0573381079,2.4536354 0.00286548684,2.63109592 2.83711561e-05,2.8068849 L0.000595794292,17.2354185 L10.8413094,8.5153375 L1.4609538,2.07494153 Z" id="Fill-42" fill="#303030" fill-rule="nonzero"></path>
                </g>
            </g>
        </g>
    </g>
</svg>